<svg id="visual" viewBox="0 0 900 600" width="900" height="600" xmlns="http://www.w3.org/2000/svg" xmlns:xlink="http://www.w3.org/1999/xlink" version="1.1"><rect x="0" y="0" width="900" height="600" fill="#03045e"></rect><defs><linearGradient id="grad1_0" x1="33.3%" y1="0%" x2="100%" y2="100%"><stop offset="20%" stop-color="#00b4d8" stop-opacity="1"></stop><stop offset="80%" stop-color="#00b4d8" stop-opacity="1"></stop></linearGradient></defs><defs><linearGradient id="grad1_1" x1="33.3%" y1="0%" x2="100%" y2="100%"><stop offset="20%" stop-color="#00b4d8" stop-opacity="1"></stop><stop offset="80%" stop-color="#0060ab" stop-opacity="1"></stop></linearGradient></defs><defs><linearGradient id="grad1_2" x1="33.3%" y1="0%" x2="100%" y2="100%"><stop offset="20%" stop-color="#03045e" stop-opacity="1"></stop><stop offset="80%" stop-color="#0060ab" stop-opacity="1"></stop></linearGradient></defs><defs><linearGradient id="grad2_0" x1="0%" y1="0%" x2="66.7%" y2="100%"><stop offset="20%" stop-color="#00b4d8" stop-opacity="1"></stop><stop offset="80%" stop-color="#00b4d8" stop-opacity="1"></stop></linearGradient></defs><defs><linearGradient id="grad2_1" x1="0%" y1="0%" x2="66.7%" y2="100%"><stop offset="20%" stop-color="#0060ab" stop-opacity="1"></stop><stop offset="80%" stop-color="#00b4d8" stop-opacity="1"></stop></linearGradient></defs><defs><linearGradient id="grad2_2" x1="0%" y1="0%" x2="66.7%" y2="100%"><stop offset="20%" stop-color="#0060ab" stop-opacity="1"></stop><stop offset="80%" stop-color="#03045e" stop-opacity="1"></stop></linearGradient></defs><g transform="translate(900, 0)"><path d="M0 378.6C-17.6 362.9 -35.1 347.3 -54.6 344.7C-74.1 342.1 -95.5 352.6 -114.6 352.8C-133.8 353.1 -150.8 343.3 -171.9 337.3C-192.9 331.4 -218.1 329.4 -221.6 305C-225.1 280.6 -207 233.8 -213.5 213.5C-220.1 193.3 -251.4 199.7 -262.9 191C-274.5 182.4 -266.4 158.6 -286 145.7C-305.6 132.8 -353 130.7 -353.8 115C-354.6 99.2 -308.8 69.8 -305.2 48.3C-301.6 26.9 -340.1 13.5 -378.6 0L0 0Z" fill="#003589"></path><path d="M0 252.4C-11.7 242 -23.4 231.5 -36.4 229.8C-49.4 228.1 -63.6 235 -76.4 235.2C-89.2 235.4 -100.5 228.8 -114.6 224.9C-128.6 220.9 -145.4 219.6 -147.7 203.3C-150.1 187.1 -138 155.8 -142.4 142.4C-146.7 128.9 -167.6 133.1 -175.3 127.4C-183 121.6 -177.6 105.8 -190.7 97.2C-203.8 88.5 -235.3 87.1 -235.9 76.6C-236.4 66.1 -205.9 46.5 -203.5 32.2C-201 17.9 -226.7 9 -252.4 0L0 0Z" fill="#008ac4"></path><path d="M0 126.2C-5.9 121 -11.7 115.8 -18.2 114.9C-24.7 114 -31.8 117.5 -38.2 117.6C-44.6 117.7 -50.3 114.4 -57.3 112.4C-64.3 110.5 -72.7 109.8 -73.9 101.7C-75 93.5 -69 77.9 -71.2 71.2C-73.4 64.4 -83.8 66.6 -87.6 63.7C-91.5 60.8 -88.8 52.9 -95.3 48.6C-101.9 44.3 -117.7 43.6 -117.9 38.3C-118.2 33.1 -102.9 23.3 -101.7 16.1C-100.5 9 -113.4 4.5 -126.2 0L0 0Z" fill="#00b4d8"></path></g><g transform="translate(0, 600)"><path d="M0 -378.6C18.6 -363.9 37.2 -349.3 53.3 -336.8C69.5 -324.3 83.3 -314.1 102.3 -314.8C121.3 -315.5 145.4 -327.3 165.7 -325.2C186 -323.2 202.4 -307.3 206.3 -284C210.3 -260.6 201.8 -229.8 223.4 -223.4C245.1 -217.1 296.7 -235.3 306.3 -222.5C315.8 -209.7 283.2 -165.9 275.3 -140.3C267.4 -114.7 284.2 -107.2 292.9 -95.2C301.6 -83.1 302.2 -66.5 315.1 -49.9C328 -33.3 353.3 -16.6 378.6 0L0 0Z" fill="#003589"></path><path d="M0 -252.4C12.4 -242.6 24.8 -232.8 35.6 -224.5C46.4 -216.2 55.5 -209.4 68.2 -209.9C80.8 -210.4 97 -218.2 110.5 -216.8C124 -215.4 134.9 -204.9 137.5 -189.3C140.2 -173.7 134.6 -153.2 149 -149C163.4 -144.7 197.8 -156.9 204.2 -148.4C210.5 -139.8 188.8 -110.6 183.5 -93.5C178.3 -76.4 189.5 -71.5 195.3 -63.5C201.1 -55.4 201.4 -44.4 210 -33.3C218.7 -22.2 235.5 -11.1 252.4 0L0 0Z" fill="#008ac4"></path><path d="M0 -126.2C6.2 -121.3 12.4 -116.4 17.8 -112.3C23.2 -108.1 27.8 -104.7 34.1 -104.9C40.4 -105.2 48.5 -109.1 55.2 -108.4C62 -107.7 67.5 -102.4 68.8 -94.7C70.1 -86.9 67.3 -76.6 74.5 -74.5C81.7 -72.4 98.9 -78.4 102.1 -74.2C105.3 -69.9 94.4 -55.3 91.8 -46.8C89.1 -38.2 94.7 -35.7 97.6 -31.7C100.5 -27.7 100.7 -22.2 105 -16.6C109.3 -11.1 117.8 -5.5 126.2 0L0 0Z" fill="#00b4d8"></path></g></svg>