<svg id="visual" viewBox="0 0 960 540" width="960" height="540" xmlns="http://www.w3.org/2000/svg" xmlns:xlink="http://www.w3.org/1999/xlink" version="1.1"><rect x="0" y="0" width="960" height="540" fill="#03045e"></rect><defs><linearGradient id="grad1_0" x1="43.8%" y1="0%" x2="100%" y2="100%"><stop offset="14.444444444444446%" stop-color="#00b4d8" stop-opacity="1"></stop><stop offset="85.55555555555554%" stop-color="#00b4d8" stop-opacity="1"></stop></linearGradient></defs><defs><linearGradient id="grad1_1" x1="43.8%" y1="0%" x2="100%" y2="100%"><stop offset="14.444444444444446%" stop-color="#00b4d8" stop-opacity="1"></stop><stop offset="85.55555555555554%" stop-color="#0060ab" stop-opacity="1"></stop></linearGradient></defs><defs><linearGradient id="grad1_2" x1="43.8%" y1="0%" x2="100%" y2="100%"><stop offset="14.444444444444446%" stop-color="#03045e" stop-opacity="1"></stop><stop offset="85.55555555555554%" stop-color="#0060ab" stop-opacity="1"></stop></linearGradient></defs><defs><linearGradient id="grad2_0" x1="0%" y1="0%" x2="56.3%" y2="100%"><stop offset="14.444444444444446%" stop-color="#00b4d8" stop-opacity="1"></stop><stop offset="85.55555555555554%" stop-color="#00b4d8" stop-opacity="1"></stop></linearGradient></defs><defs><linearGradient id="grad2_1" x1="0%" y1="0%" x2="56.3%" y2="100%"><stop offset="14.444444444444446%" stop-color="#0060ab" stop-opacity="1"></stop><stop offset="85.55555555555554%" stop-color="#00b4d8" stop-opacity="1"></stop></linearGradient></defs><defs><linearGradient id="grad2_2" x1="0%" y1="0%" x2="56.3%" y2="100%"><stop offset="14.444444444444446%" stop-color="#0060ab" stop-opacity="1"></stop><stop offset="85.55555555555554%" stop-color="#03045e" stop-opacity="1"></stop></linearGradient></defs><g transform="translate(960, 0)"><path d="M0 378C-15.7 351.7 -31.3 325.3 -51 322C-70.7 318.6 -94.4 338.2 -106.3 327.2C-118.2 316.1 -118.3 274.3 -137.6 270C-156.9 265.7 -195.4 298.8 -220.4 303.4C-245.5 308 -257 284 -258.1 258.1C-259.2 232.2 -249.8 204.2 -262.1 190.4C-274.4 176.7 -308.4 177.1 -327 166.6C-345.6 156.1 -348.9 134.8 -354.7 115.3C-360.6 95.7 -369 78 -373.3 59.1C-377.7 40.2 -377.8 20.1 -378 0L0 0Z" fill="#003589"></path><path d="M0 252C-10.4 234.4 -20.9 216.9 -34 214.7C-47.1 212.4 -62.9 225.5 -70.9 218.1C-78.8 210.7 -78.8 182.9 -91.7 180C-104.6 177.1 -130.3 199.2 -146.9 202.3C-163.6 205.3 -171.3 189.4 -172.1 172.1C-172.8 154.8 -166.5 136.1 -174.7 127C-182.9 117.8 -205.6 118.1 -218 111.1C-230.4 104.1 -232.6 89.9 -236.5 76.8C-240.4 63.8 -246 52 -248.9 39.4C-251.8 26.8 -251.9 13.4 -252 0L0 0Z" fill="#008ac4"></path><path d="M0 126C-5.2 117.2 -10.4 108.4 -17 107.3C-23.6 106.2 -31.5 112.7 -35.4 109.1C-39.4 105.4 -39.4 91.4 -45.9 90C-52.3 88.6 -65.1 99.6 -73.5 101.1C-81.8 102.7 -85.7 94.7 -86 86C-86.4 77.4 -83.3 68.1 -87.4 63.5C-91.5 58.9 -102.8 59 -109 55.5C-115.2 52 -116.3 44.9 -118.2 38.4C-120.2 31.9 -123 26 -124.4 19.7C-125.9 13.4 -125.9 6.7 -126 0L0 0Z" fill="#00b4d8"></path></g><g transform="translate(0, 540)"><path d="M0 -378C19.1 -375.5 38.3 -373 59 -372.4C79.7 -371.7 101.9 -372.9 116.8 -359.5C131.7 -346.1 139.4 -318 157.1 -308.3C174.8 -298.5 202.6 -307.1 212.2 -292.1C221.7 -277 213 -238.3 217.1 -217.1C221.1 -195.8 238 -192 252.4 -183.4C266.8 -174.8 278.8 -161.5 286.9 -146.2C295 -130.9 299.2 -113.5 297.7 -96.7C296.1 -79.9 288.8 -63.7 301.2 -47.7C313.7 -31.7 345.8 -15.8 378 0L0 0Z" fill="#003589"></path><path d="M0 -252C12.8 -250.3 25.5 -248.7 39.3 -248.2C53.1 -247.8 67.9 -248.6 77.9 -239.7C87.8 -230.7 92.9 -212 104.7 -205.5C116.5 -199 135.1 -204.7 141.5 -194.7C147.8 -184.7 142 -158.9 144.7 -144.7C147.4 -130.5 158.7 -128 168.3 -122.3C177.9 -116.5 185.9 -107.7 191.3 -97.5C196.7 -87.2 199.5 -75.7 198.5 -64.5C197.4 -53.3 192.5 -42.5 200.8 -31.8C209.1 -21.1 230.6 -10.6 252 0L0 0Z" fill="#008ac4"></path><path d="M0 -126C6.4 -125.2 12.8 -124.3 19.7 -124.1C26.6 -123.9 34 -124.3 38.9 -119.8C43.9 -115.4 46.5 -106 52.4 -102.8C58.3 -99.5 67.5 -102.4 70.7 -97.4C73.9 -92.3 71 -79.4 72.4 -72.4C73.7 -65.3 79.3 -64 84.1 -61.1C88.9 -58.3 92.9 -53.8 95.6 -48.7C98.3 -43.6 99.7 -37.8 99.2 -32.2C98.7 -26.6 96.3 -21.2 100.4 -15.9C104.6 -10.6 115.3 -5.3 126 0L0 0Z" fill="#00b4d8"></path></g></svg>