<svg id="visual" viewBox="0 0 960 540" width="960" height="540" xmlns="http://www.w3.org/2000/svg" xmlns:xlink="http://www.w3.org/1999/xlink" version="1.1"><rect x="0" y="0" width="960" height="540" fill="#03045e"></rect><defs><linearGradient id="grad1_0" x1="43.8%" y1="0%" x2="100%" y2="100%"><stop offset="14.444444444444446%" stop-color="#03045e" stop-opacity="1"></stop><stop offset="85.55555555555554%" stop-color="#03045e" stop-opacity="1"></stop></linearGradient></defs><defs><linearGradient id="grad2_0" x1="0%" y1="0%" x2="56.3%" y2="100%"><stop offset="14.444444444444446%" stop-color="#03045e" stop-opacity="1"></stop><stop offset="85.55555555555554%" stop-color="#03045e" stop-opacity="1"></stop></linearGradient></defs><g transform="translate(960, 0)"><path d="M0 351C-26.5 347.1 -52.9 343.2 -75.7 331.5C-98.4 319.7 -117.4 300.1 -138.4 287.4C-159.4 274.8 -182.5 269.1 -207.6 260.3C-232.8 251.6 -260 239.8 -274.4 218.8C-288.9 197.9 -290.5 167.9 -295.5 142.3C-300.6 116.8 -309 95.7 -318.8 72.8C-328.6 49.8 -339.8 24.9 -351 0L0 0Z" fill="#00B4D8"></path></g><g transform="translate(0, 540)"><path d="M0 -351C27 -347.6 53.9 -344.2 75.4 -330.5C97 -316.8 113.1 -292.9 136.7 -283.8C160.3 -274.7 191.4 -280.4 217.6 -272.9C243.8 -265.4 265.1 -244.7 274.4 -218.8C283.7 -193 281 -161.9 283.8 -136.7C286.6 -111.4 295 -91.9 307.1 -70.1C319.2 -48.3 335.1 -24.1 351 0L0 0Z" fill="#00B4D8"></path></g></svg>