<svg id="visual" viewBox="0 0 900 600" width="900" height="600" xmlns="http://www.w3.org/2000/svg" xmlns:xlink="http://www.w3.org/1999/xlink" version="1.1"><rect x="0" y="0" width="900" height="600" fill="#03045E"></rect><path d="M0 185L21.5 183.8C43 182.7 86 180.3 128.8 174.8C171.7 169.3 214.3 160.7 257.2 164.5C300 168.3 343 184.7 385.8 197C428.7 209.3 471.3 217.7 514.2 223.5C557 229.3 600 232.7 642.8 231.7C685.7 230.7 728.3 225.3 771.2 224.5C814 223.7 857 227.3 878.5 229.2L900 231L900 0L878.5 0C857 0 814 0 771.2 0C728.3 0 685.7 0 642.8 0C600 0 557 0 514.2 0C471.3 0 428.7 0 385.8 0C343 0 300 0 257.2 0C214.3 0 171.7 0 128.8 0C86 0 43 0 21.5 0L0 0Z" fill="#00b4d8"></path><path d="M0 176L21.5 173.7C43 171.3 86 166.7 128.8 160.3C171.7 154 214.3 146 257.2 149.7C300 153.3 343 168.7 385.8 165.7C428.7 162.7 471.3 141.3 514.2 141.2C557 141 600 162 642.8 163.2C685.7 164.3 728.3 145.7 771.2 139.2C814 132.7 857 138.3 878.5 141.2L900 144L900 0L878.5 0C857 0 814 0 771.2 0C728.3 0 685.7 0 642.8 0C600 0 557 0 514.2 0C471.3 0 428.7 0 385.8 0C343 0 300 0 257.2 0C214.3 0 171.7 0 128.8 0C86 0 43 0 21.5 0L0 0Z" fill="#40bfdd"></path><path d="M0 134L21.5 129.7C43 125.3 86 116.7 128.8 109.7C171.7 102.7 214.3 97.3 257.2 96.7C300 96 343 100 385.8 109.5C428.7 119 471.3 134 514.2 139.7C557 145.3 600 141.7 642.8 140.7C685.7 139.7 728.3 141.3 771.2 138.2C814 135 857 127 878.5 123L900 119L900 0L878.5 0C857 0 814 0 771.2 0C728.3 0 685.7 0 642.8 0C600 0 557 0 514.2 0C471.3 0 428.7 0 385.8 0C343 0 300 0 257.2 0C214.3 0 171.7 0 128.8 0C86 0 43 0 21.5 0L0 0Z" fill="#5fcae3"></path><path d="M0 102L21.5 99.7C43 97.3 86 92.7 128.8 89.8C171.7 87 214.3 86 257.2 85C300 84 343 83 385.8 87.2C428.7 91.3 471.3 100.7 514.2 105C557 109.3 600 108.7 642.8 102.3C685.7 96 728.3 84 771.2 76.5C814 69 857 66 878.5 64.5L900 63L900 0L878.5 0C857 0 814 0 771.2 0C728.3 0 685.7 0 642.8 0C600 0 557 0 514.2 0C471.3 0 428.7 0 385.8 0C343 0 300 0 257.2 0C214.3 0 171.7 0 128.8 0C86 0 43 0 21.5 0L0 0Z" fill="#79d5e9"></path><path d="M0 58L21.5 58.7C43 59.3 86 60.7 128.8 63.2C171.7 65.7 214.3 69.3 257.2 63.8C300 58.3 343 43.7 385.8 42.3C428.7 41 471.3 53 514.2 59.7C557 66.3 600 67.7 642.8 64.8C685.7 62 728.3 55 771.2 48.8C814 42.7 857 37.3 878.5 34.7L900 32L900 0L878.5 0C857 0 814 0 771.2 0C728.3 0 685.7 0 642.8 0C600 0 557 0 514.2 0C471.3 0 428.7 0 385.8 0C343 0 300 0 257.2 0C214.3 0 171.7 0 128.8 0C86 0 43 0 21.5 0L0 0Z" fill="#90e0ef"></path></svg>