<svg id="visual" viewBox="0 0 900 600" width="900" height="600" xmlns="http://www.w3.org/2000/svg" xmlns:xlink="http://www.w3.org/1999/xlink" version="1.1"><rect x="0" y="0" width="900" height="600" fill="#03045E"></rect><path d="M0 413L21.5 414.2C43 415.3 86 417.7 128.8 423.2C171.7 428.7 214.3 437.3 257.2 433.5C300 429.7 343 413.3 385.8 401C428.7 388.7 471.3 380.3 514.2 374.5C557 368.7 600 365.3 642.8 366.3C685.7 367.3 728.3 372.7 771.2 373.5C814 374.3 857 370.7 878.5 368.8L900 367L900 601L878.5 601C857 601 814 601 771.2 601C728.3 601 685.7 601 642.8 601C600 601 557 601 514.2 601C471.3 601 428.7 601 385.8 601C343 601 300 601 257.2 601C214.3 601 171.7 601 128.8 601C86 601 43 601 21.5 601L0 601Z" fill="#00b4d8"></path><path d="M0 422L21.5 424.3C43 426.7 86 431.3 128.8 437.7C171.7 444 214.3 452 257.2 448.3C300 444.7 343 429.3 385.8 432.3C428.7 435.3 471.3 456.7 514.2 456.8C557 457 600 436 642.8 434.8C685.7 433.7 728.3 452.3 771.2 458.8C814 465.3 857 459.7 878.5 456.8L900 454L900 601L878.5 601C857 601 814 601 771.2 601C728.3 601 685.7 601 642.8 601C600 601 557 601 514.2 601C471.3 601 428.7 601 385.8 601C343 601 300 601 257.2 601C214.3 601 171.7 601 128.8 601C86 601 43 601 21.5 601L0 601Z" fill="#40bfdd"></path><path d="M0 464L21.5 468.3C43 472.7 86 481.3 128.8 488.3C171.7 495.3 214.3 500.7 257.2 501.3C300 502 343 498 385.8 488.5C428.7 479 471.3 464 514.2 458.3C557 452.7 600 456.3 642.8 457.3C685.7 458.3 728.3 456.7 771.2 459.8C814 463 857 471 878.5 475L900 479L900 601L878.5 601C857 601 814 601 771.2 601C728.3 601 685.7 601 642.8 601C600 601 557 601 514.2 601C471.3 601 428.7 601 385.8 601C343 601 300 601 257.2 601C214.3 601 171.7 601 128.8 601C86 601 43 601 21.5 601L0 601Z" fill="#5fcae3"></path><path d="M0 496L21.5 498.3C43 500.7 86 505.3 128.8 508.2C171.7 511 214.3 512 257.2 513C300 514 343 515 385.8 510.8C428.7 506.7 471.3 497.3 514.2 493C557 488.7 600 489.3 642.8 495.7C685.7 502 728.3 514 771.2 521.5C814 529 857 532 878.5 533.5L900 535L900 601L878.5 601C857 601 814 601 771.2 601C728.3 601 685.7 601 642.8 601C600 601 557 601 514.2 601C471.3 601 428.7 601 385.8 601C343 601 300 601 257.2 601C214.3 601 171.7 601 128.8 601C86 601 43 601 21.5 601L0 601Z" fill="#79d5e9"></path><path d="M0 540L21.5 539.3C43 538.7 86 537.3 128.8 534.8C171.7 532.3 214.3 528.7 257.2 534.2C300 539.7 343 554.3 385.8 555.7C428.7 557 471.3 545 514.2 538.3C557 531.7 600 530.3 642.8 533.2C685.7 536 728.3 543 771.2 549.2C814 555.3 857 560.7 878.5 563.3L900 566L900 601L878.5 601C857 601 814 601 771.2 601C728.3 601 685.7 601 642.8 601C600 601 557 601 514.2 601C471.3 601 428.7 601 385.8 601C343 601 300 601 257.2 601C214.3 601 171.7 601 128.8 601C86 601 43 601 21.5 601L0 601Z" fill="#90e0ef"></path></svg>